{"cells":[{"cell_type":"code","execution_count":null,"metadata":{"colab":{"base_uri":"https://localhost:8080/"},"id":"21oUEWXOeV2_","executionInfo":{"status":"ok","timestamp":1714088891890,"user_tz":240,"elapsed":9933,"user":{"displayName":"Odin Huan","userId":"02251351221316418574"}},"outputId":"c2146f9d-0872-4b0d-e340-9243bf88b5bf"},"outputs":[{"output_type":"stream","name":"stdout","text":["--2024-04-25 23:48:01--  https://dl.fbaipublicfiles.com/video_similarity_challenge/46ef53734a4/dataset_test/queries/Q300085.mp4\n","Resolving dl.fbaipublicfiles.com (dl.fbaipublicfiles.com)... 13.35.7.82, 13.35.7.128, 13.35.7.50, ...\n","Connecting to dl.fbaipublicfiles.com (dl.fbaipublicfiles.com)|13.35.7.82|:443... connected.\n","HTTP request sent, awaiting response... 200 OK\n","Length: 2223176 (2.1M) [video/mp4]\n","Saving to: ‘Q300085.mp4’\n","\n","Q300085.mp4         100%[===================>]   2.12M  --.-KB/s    in 0.07s   \n","\n","2024-04-25 23:48:02 (32.3 MB/s) - ‘Q300085.mp4’ saved [2223176/2223176]\n","\n","--2024-04-25 23:48:02--  https://dl.fbaipublicfiles.com/video_similarity_challenge/46ef53734a4/dataset_test/queries/Q300088.mp4\n","Resolving dl.fbaipublicfiles.com (dl.fbaipublicfiles.com)... 13.35.7.82, 13.35.7.128, 13.35.7.50, ...\n","Connecting to dl.fbaipublicfiles.com (dl.fbaipublicfiles.com)|13.35.7.82|:443... connected.\n","HTTP request sent, awaiting response... 200 OK\n","Length: 1692750 (1.6M) [video/mp4]\n","Saving to: ‘Q300088.mp4’\n","\n","Q300088.mp4         100%[===================>]   1.61M  --.-KB/s    in 0.1s    \n","\n","2024-04-25 23:48:02 (12.6 MB/s) - ‘Q300088.mp4’ saved [1692750/1692750]\n","\n","--2024-04-25 23:48:03--  https://dl.fbaipublicfiles.com/video_similarity_challenge/46ef53734a4/dataset_test/queries/Q300097.mp4\n","Resolving dl.fbaipublicfiles.com (dl.fbaipublicfiles.com)... 13.35.7.82, 13.35.7.128, 13.35.7.50, ...\n","Connecting to dl.fbaipublicfiles.com (dl.fbaipublicfiles.com)|13.35.7.82|:443... connected.\n","HTTP request sent, awaiting response... 200 OK\n","Length: 452668 (442K) [video/mp4]\n","Saving to: ‘Q300097.mp4’\n","\n","Q300097.mp4         100%[===================>] 442.06K  --.-KB/s    in 0.1s    \n","\n","2024-04-25 23:48:03 (3.60 MB/s) - ‘Q300097.mp4’ saved [452668/452668]\n","\n","--2024-04-25 23:48:03--  https://dl.fbaipublicfiles.com/video_similarity_challenge/46ef53734a4/dataset_test/queries/Q300098.mp4\n","Resolving dl.fbaipublicfiles.com (dl.fbaipublicfiles.com)... 13.35.7.82, 13.35.7.128, 13.35.7.50, ...\n","Connecting to dl.fbaipublicfiles.com (dl.fbaipublicfiles.com)|13.35.7.82|:443... connected.\n","HTTP request sent, awaiting response... 200 OK\n","Length: 2457258 (2.3M) [video/mp4]\n","Saving to: ‘Q300098.mp4’\n","\n","Q300098.mp4         100%[===================>]   2.34M  --.-KB/s    in 0.1s    \n","\n","2024-04-25 23:48:04 (24.4 MB/s) - ‘Q300098.mp4’ saved [2457258/2457258]\n","\n","--2024-04-25 23:48:04--  https://dl.fbaipublicfiles.com/video_similarity_challenge/46ef53734a4/dataset_test/queries/Q300110.mp4\n","Resolving dl.fbaipublicfiles.com (dl.fbaipublicfiles.com)... 13.35.7.82, 13.35.7.128, 13.35.7.50, ...\n","Connecting to dl.fbaipublicfiles.com (dl.fbaipublicfiles.com)|13.35.7.82|:443... connected.\n","HTTP request sent, awaiting response... 200 OK\n","Length: 1764081 (1.7M) [video/mp4]\n","Saving to: ‘Q300110.mp4’\n","\n","Q300110.mp4         100%[===================>]   1.68M  --.-KB/s    in 0.03s   \n","\n","2024-04-25 23:48:05 (48.2 MB/s) - ‘Q300110.mp4’ saved [1764081/1764081]\n","\n","--2024-04-25 23:48:05--  https://dl.fbaipublicfiles.com/video_similarity_challenge/46ef53734a4/dataset_test/queries/Q300121.mp4\n","Resolving dl.fbaipublicfiles.com (dl.fbaipublicfiles.com)... 13.35.7.82, 13.35.7.128, 13.35.7.50, ...\n","Connecting to dl.fbaipublicfiles.com (dl.fbaipublicfiles.com)|13.35.7.82|:443... connected.\n","HTTP request sent, awaiting response... 200 OK\n","Length: 4906119 (4.7M) [video/mp4]\n","Saving to: ‘Q300121.mp4’\n","\n","Q300121.mp4         100%[===================>]   4.68M  18.8MB/s    in 0.2s    \n","\n","2024-04-25 23:48:05 (18.8 MB/s) - ‘Q300121.mp4’ saved [4906119/4906119]\n","\n","--2024-04-25 23:48:05--  https://dl.fbaipublicfiles.com/video_similarity_challenge/46ef53734a4/dataset_test/queries/Q300166.mp4\n","Resolving dl.fbaipublicfiles.com (dl.fbaipublicfiles.com)... 13.35.7.82, 13.35.7.128, 13.35.7.50, ...\n","Connecting to dl.fbaipublicfiles.com (dl.fbaipublicfiles.com)|13.35.7.82|:443... connected.\n","HTTP request sent, awaiting response... 200 OK\n","Length: 1596326 (1.5M) [video/mp4]\n","Saving to: ‘Q300166.mp4’\n","\n","Q300166.mp4         100%[===================>]   1.52M  --.-KB/s    in 0.02s   \n","\n","2024-04-25 23:48:06 (80.8 MB/s) - ‘Q300166.mp4’ saved [1596326/1596326]\n","\n","--2024-04-25 23:48:06--  https://dl.fbaipublicfiles.com/video_similarity_challenge/46ef53734a4/dataset_test/queries/Q300175.mp4\n","Resolving dl.fbaipublicfiles.com (dl.fbaipublicfiles.com)... 13.35.7.82, 13.35.7.128, 13.35.7.50, ...\n","Connecting to dl.fbaipublicfiles.com (dl.fbaipublicfiles.com)|13.35.7.82|:443... connected.\n","HTTP request sent, awaiting response... 200 OK\n","Length: 3368076 (3.2M) [video/mp4]\n","Saving to: ‘Q300175.mp4’\n","\n","Q300175.mp4         100%[===================>]   3.21M  16.9MB/s    in 0.2s    \n","\n","2024-04-25 23:48:07 (16.9 MB/s) - ‘Q300175.mp4’ saved [3368076/3368076]\n","\n","--2024-04-25 23:48:07--  https://dl.fbaipublicfiles.com/video_similarity_challenge/46ef53734a4/dataset_test/queries/Q300187.mp4\n","Resolving dl.fbaipublicfiles.com (dl.fbaipublicfiles.com)... 13.35.7.82, 13.35.7.128, 13.35.7.50, ...\n","Connecting to dl.fbaipublicfiles.com (dl.fbaipublicfiles.com)|13.35.7.82|:443... connected.\n","HTTP request sent, awaiting response... 200 OK\n","Length: 765794 (748K) [video/mp4]\n","Saving to: ‘Q300187.mp4’\n","\n","Q300187.mp4         100%[===================>] 747.85K  --.-KB/s    in 0.01s   \n","\n","2024-04-25 23:48:07 (49.5 MB/s) - ‘Q300187.mp4’ saved [765794/765794]\n","\n","--2024-04-25 23:48:07--  https://dl.fbaipublicfiles.com/video_similarity_challenge/46ef53734a4/dataset_test/queries/Q300190.mp4\n","Resolving dl.fbaipublicfiles.com (dl.fbaipublicfiles.com)... 13.35.7.82, 13.35.7.128, 13.35.7.50, ...\n","Connecting to dl.fbaipublicfiles.com (dl.fbaipublicfiles.com)|13.35.7.82|:443... connected.\n","HTTP request sent, awaiting response... 200 OK\n","Length: 489564 (478K) [video/mp4]\n","Saving to: ‘Q300190.mp4’\n","\n","Q300190.mp4         100%[===================>] 478.09K  --.-KB/s    in 0.01s   \n","\n","2024-04-25 23:48:08 (33.5 MB/s) - ‘Q300190.mp4’ saved [489564/489564]\n","\n","--2024-04-25 23:48:08--  https://dl.fbaipublicfiles.com/video_similarity_challenge/46ef53734a4/dataset_test/queries/Q300191.mp4\n","Resolving dl.fbaipublicfiles.com (dl.fbaipublicfiles.com)... 13.35.7.82, 13.35.7.128, 13.35.7.50, ...\n","Connecting to dl.fbaipublicfiles.com (dl.fbaipublicfiles.com)|13.35.7.82|:443... connected.\n","HTTP request sent, awaiting response... 200 OK\n","Length: 7530941 (7.2M) [video/mp4]\n","Saving to: ‘Q300191.mp4’\n","\n","Q300191.mp4         100%[===================>]   7.18M  17.3MB/s    in 0.4s    \n","\n","2024-04-25 23:48:09 (17.3 MB/s) - ‘Q300191.mp4’ saved [7530941/7530941]\n","\n","--2024-04-25 23:48:09--  https://dl.fbaipublicfiles.com/video_similarity_challenge/46ef53734a4/dataset_test/queries/Q300224.mp4\n","Resolving dl.fbaipublicfiles.com (dl.fbaipublicfiles.com)... 13.35.7.82, 13.35.7.128, 13.35.7.50, ...\n","Connecting to dl.fbaipublicfiles.com (dl.fbaipublicfiles.com)|13.35.7.82|:443... connected.\n","HTTP request sent, awaiting response... 200 OK\n","Length: 3491892 (3.3M) [video/mp4]\n","Saving to: ‘Q300224.mp4’\n","\n","Q300224.mp4         100%[===================>]   3.33M  --.-KB/s    in 0.1s    \n","\n","2024-04-25 23:48:10 (26.8 MB/s) - ‘Q300224.mp4’ saved [3491892/3491892]\n","\n","--2024-04-25 23:48:10--  https://dl.fbaipublicfiles.com/video_similarity_challenge/46ef53734a4/dataset_test/queries/Q300227.mp4\n","Resolving dl.fbaipublicfiles.com (dl.fbaipublicfiles.com)... 13.35.7.82, 13.35.7.128, 13.35.7.50, ...\n","Connecting to dl.fbaipublicfiles.com (dl.fbaipublicfiles.com)|13.35.7.82|:443... connected.\n","HTTP request sent, awaiting response... 200 OK\n","Length: 207080 (202K) [video/mp4]\n","Saving to: ‘Q300227.mp4’\n","\n","Q300227.mp4         100%[===================>] 202.23K  --.-KB/s    in 0.008s  \n","\n","2024-04-25 23:48:10 (23.8 MB/s) - ‘Q300227.mp4’ saved [207080/207080]\n","\n"]}],"source":["\n","# !ffmpeg -i *.mp4 -vn -acodec libmp3lame -ab 64k *.mp3\n","!rm -rf *.mp4\n","# !mv *.mp4 *.mp4ac\n","\n","# !wget https://dl.fbaipublicfiles.com/video_similarity_challenge/46ef53734a4/dataset_test/queries/Q300001.mp4\n","# !wget https://dl.fbaipublicfiles.com/video_similarity_challenge/46ef53734a4/dataset_test/queries/Q300002.mp4\n","# !wget https://dl.fbaipublicfiles.com/video_similarity_challenge/46ef53734a4/dataset_test/queries/Q300004.mp4\n","# !wget https://dl.fbaipublicfiles.com/video_similarity_challenge/46ef53734a4/dataset_test/queries/Q300005.mp4\n","# !wget https://dl.fbaipublicfiles.com/video_similarity_challenge/46ef53734a4/dataset_test/queries/Q300013.mp4\n","# !wget https://dl.fbaipublicfiles.com/video_similarity_challenge/46ef53734a4/dataset_test/queries/Q300020.mp4\n","# !wget https://dl.fbaipublicfiles.com/video_similarity_challenge/46ef53734a4/dataset_test/queries/Q300029.mp4\n","# !wget https://dl.fbaipublicfiles.com/video_similarity_challenge/46ef53734a4/dataset_test/queries/Q300039.mp4\n","# !wget https://dl.fbaipublicfiles.com/video_similarity_challenge/46ef53734a4/dataset_test/queries/Q300066.mp4\n","# !wget https://dl.fbaipublicfiles.com/video_similarity_challenge/46ef53734a4/dataset_test/queries/Q300069.mp4\n","# !wget https://dl.fbaipublicfiles.com/video_similarity_challenge/46ef53734a4/dataset_test/queries/Q300077.mp4\n","# !wget https://dl.fbaipublicfiles.com/video_similarity_challenge/46ef53734a4/dataset_test/queries/Q300080.mp4\n","# !wget https://dl.fbaipublicfiles.com/video_similarity_challenge/46ef53734a4/dataset_test/queries/Q300084.mp4\n","\n","!wget https://dl.fbaipublicfiles.com/video_similarity_challenge/46ef53734a4/dataset_test/queries/Q300085.mp4\n","!wget https://dl.fbaipublicfiles.com/video_similarity_challenge/46ef53734a4/dataset_test/queries/Q300088.mp4\n","!wget https://dl.fbaipublicfiles.com/video_similarity_challenge/46ef53734a4/dataset_test/queries/Q300097.mp4\n","!wget https://dl.fbaipublicfiles.com/video_similarity_challenge/46ef53734a4/dataset_test/queries/Q300098.mp4\n","!wget https://dl.fbaipublicfiles.com/video_similarity_challenge/46ef53734a4/dataset_test/queries/Q300110.mp4\n","!wget https://dl.fbaipublicfiles.com/video_similarity_challenge/46ef53734a4/dataset_test/queries/Q300121.mp4\n","!wget https://dl.fbaipublicfiles.com/video_similarity_challenge/46ef53734a4/dataset_test/queries/Q300166.mp4\n","!wget https://dl.fbaipublicfiles.com/video_similarity_challenge/46ef53734a4/dataset_test/queries/Q300175.mp4\n","!wget https://dl.fbaipublicfiles.com/video_similarity_challenge/46ef53734a4/dataset_test/queries/Q300187.mp4\n","!wget https://dl.fbaipublicfiles.com/video_similarity_challenge/46ef53734a4/dataset_test/queries/Q300190.mp4\n","!wget https://dl.fbaipublicfiles.com/video_similarity_challenge/46ef53734a4/dataset_test/queries/Q300191.mp4\n","!wget https://dl.fbaipublicfiles.com/video_similarity_challenge/46ef53734a4/dataset_test/queries/Q300224.mp4\n","!wget https://dl.fbaipublicfiles.com/video_similarity_challenge/46ef53734a4/dataset_test/queries/Q300227.mp4\n"]},{"cell_type":"code","execution_count":null,"metadata":{"colab":{"base_uri":"https://localhost:8080/"},"executionInfo":{"elapsed":79600,"status":"ok","timestamp":1714088971799,"user":{"displayName":"Odin Huan","userId":"02251351221316418574"},"user_tz":240},"id":"zM7LYSuG5TQx","outputId":"3b908ec6-67af-42b5-ef8f-85fa8b0f73a1"},"outputs":[{"output_type":"stream","name":"stdout","text":["\u001b[?25l     \u001b[90m━━━━━━━━━━━━━━━━━━━━━━━━━━━━━━━━━━━━━━━━\u001b[0m \u001b[32m0.0/54.4 kB\u001b[0m \u001b[31m?\u001b[0m eta \u001b[36m-:--:--\u001b[0m\r\u001b[2K     \u001b[90m━━━━━━━━━━━━━━━━━━━━━━━━━━━━━━━━━━━━━━━━\u001b[0m \u001b[32m54.4/54.4 kB\u001b[0m \u001b[31m1.7 MB/s\u001b[0m eta \u001b[36m0:00:00\u001b[0m\n","\u001b[?25h  Preparing metadata (setup.py) ... \u001b[?25l\u001b[?25hdone\n","  Building wheel for clip (setup.py) ... \u001b[?25l\u001b[?25hdone\n","Using device: cuda\n"]},{"output_type":"stream","name":"stderr","text":["100%|████████████████████████████████████████| 338M/338M [00:02<00:00, 128MiB/s]\n"]}],"source":["!pip --quiet install ftfy regex tqdm\n","!pip --quiet install git+https://github.com/openai/CLIP.git\n","\n","\n","import torch\n","import clip\n","from PIL import Image\n","device = \"cuda\" if torch.cuda.is_available() else \"cpu\"\n","\n","print(f'Using device: {device}')\n","model, preprocess = clip.load(\"ViT-B/32\", device=device)\n","def classify(im, labels):\n","    image = preprocess(im).unsqueeze(0).to(device)\n","    text = clip.tokenize(labels).to(device)\n","\n","    with torch.no_grad():\n","        image_features = model.encode_image(image)\n","        text_features = model.encode_text(text)\n","\n","        logits_per_image, logits_per_text = model(image, text)\n","        probs = logits_per_image.softmax(dim=-1).cpu().numpy()\n","    max_prob = 0\n","    max_label = \"\"\n","    max_label_index = 0\n","    for i, label in enumerate(labels):\n","        # print(f\"{labels[i]} = {probs[0,i]*100}%\")\n","        if probs[0,i] > max_prob:\n","            max_prob = probs[0,i]\n","            max_label = labels[i]\n","            max_label_index = i\n","    return max_label, max_label_index\n","    # print(f\"The most likely label is {max_label} with a probability of {max_prob*100}%\")\n","\n","\n","\n","\n"]},{"cell_type":"code","execution_count":null,"metadata":{"id":"hsOio_9eKR_h"},"outputs":[],"source":["\n","import os\n","import subprocess\n","\n","mp4_files = [f for f in os.listdir() if f.endswith('.mp4')]\n","\n","for mp4_file in mp4_files:\n","  new_filename = mp4_file.replace('.mp4', '_short.mp4')\n","\n","  subprocess.run(['ffmpeg', '-i', mp4_file, '-t', '30', '-c:v', 'libx264', '-c:a', 'aac', new_filename])\n"]},{"cell_type":"code","execution_count":null,"metadata":{"colab":{"base_uri":"https://localhost:8080/"},"executionInfo":{"elapsed":12,"status":"ok","timestamp":1714089007909,"user":{"displayName":"Odin Huan","userId":"02251351221316418574"},"user_tz":240},"id":"ZK8UBkCG5zkg","outputId":"fc90d4b7-9846-45f7-a460-37c0f8984564"},"outputs":[{"output_type":"stream","name":"stdout","text":["['Q300110_short.mp4', 'Q300088_short.mp4', 'Q300098_short.mp4', 'Q300191_short.mp4', 'Q300097_short.mp4', 'Q300224_short.mp4', 'Q300085_short.mp4', 'Q300166_short.mp4', 'Q300227_short.mp4', 'Q300121_short.mp4', 'Q300175_short.mp4', 'Q300187_short.mp4', 'Q300190_short.mp4']\n"]}],"source":["\n","import glob\n","\n","mp4_files = glob.glob(\"*_short.mp4\")\n","\n","print(mp4_files)\n"]},{"cell_type":"code","execution_count":null,"metadata":{"colab":{"base_uri":"https://localhost:8080/"},"executionInfo":{"elapsed":11,"status":"ok","timestamp":1714089007909,"user":{"displayName":"Odin Huan","userId":"02251351221316418574"},"user_tz":240},"id":"BzMJpIkexylV","outputId":"57c1041e-cc56-41a8-a0a4-e531268a6abe"},"outputs":[{"output_type":"stream","name":"stdout","text":["13\n","['Q300085_short.mp4', 'Q300088_short.mp4', 'Q300097_short.mp4', 'Q300098_short.mp4', 'Q300110_short.mp4', 'Q300121_short.mp4', 'Q300166_short.mp4', 'Q300175_short.mp4', 'Q300187_short.mp4', 'Q300190_short.mp4', 'Q300191_short.mp4', 'Q300224_short.mp4', 'Q300227_short.mp4']\n"]}],"source":["\n","import re\n","\n","def get_number_from_filename(filename):\n","  match = re.search(r'\\d+', filename)\n","  if match:\n","    return int(match.group(0))\n","  else:\n","    return 0\n","\n","sorted_mp4_files = sorted(mp4_files, key=get_number_from_filename)\n","\n","mp4_files = sorted_mp4_files\n","print(len(mp4_files))\n","print(mp4_files)"]},{"cell_type":"code","execution_count":null,"metadata":{"colab":{"base_uri":"https://localhost:8080/"},"executionInfo":{"elapsed":10,"status":"ok","timestamp":1714089007909,"user":{"displayName":"Odin Huan","userId":"02251351221316418574"},"user_tz":240},"id":"cUEGLYYQ-WKG","outputId":"0232e72c-0543-4d9f-dd3a-5a18d1ae1a90"},"outputs":[{"output_type":"stream","name":"stdout","text":["['MoonForest inst.mp3', 'Bygone Era.mp3', 'Dawning Tale.mp3', 'Night Music.mp3', 'Very Right.mp3', 'Coppelia Room.mp3', 'Bewitched Forest.mp3', 'Kittens Caprice.mp3', 'Malmo Sunrise.mp3']\n"]}],"source":["\n","import glob\n","\n","mp3_files = glob.glob(\"*.mp3\")\n","\n","print(mp3_files)"]},{"cell_type":"code","execution_count":null,"metadata":{"colab":{"base_uri":"https://localhost:8080/"},"executionInfo":{"elapsed":11,"status":"ok","timestamp":1714089007910,"user":{"displayName":"Odin Huan","userId":"02251351221316418574"},"user_tz":240},"id":"cYZ43yLc6AoZ","outputId":"f1de62bc-3a5d-46cd-a218-b676bf39f37c"},"outputs":[{"output_type":"execute_result","data":{"text/plain":["['MoonForest inst',\n"," 'Bygone Era',\n"," 'Dawning Tale',\n"," 'Night Music',\n"," 'Very Right',\n"," 'Coppelia Room',\n"," 'Bewitched Forest',\n"," 'Kittens Caprice',\n"," 'Malmo Sunrise']"]},"metadata":{},"execution_count":7}],"source":["\n","labels = [file_name[:-4] for file_name in mp3_files]\n","labels\n","\n"]},{"cell_type":"code","execution_count":null,"metadata":{"colab":{"base_uri":"https://localhost:8080/"},"executionInfo":{"elapsed":9173,"status":"ok","timestamp":1714089017073,"user":{"displayName":"Odin Huan","userId":"02251351221316418574"},"user_tz":240},"id":"PzQgIXte6HYg","outputId":"c430aebb-96bc-4834-cd9b-02f6fe62c63f"},"outputs":[{"output_type":"stream","name":"stdout","text":["Collecting decord\n","  Downloading decord-0.6.0-py3-none-manylinux2010_x86_64.whl (13.6 MB)\n","\u001b[2K     \u001b[90m━━━━━━━━━━━━━━━━━━━━━━━━━━━━━━━━━━━━━━━━\u001b[0m \u001b[32m13.6/13.6 MB\u001b[0m \u001b[31m27.3 MB/s\u001b[0m eta \u001b[36m0:00:00\u001b[0m\n","\u001b[?25hRequirement already satisfied: numpy>=1.14.0 in /usr/local/lib/python3.10/dist-packages (from decord) (1.25.2)\n","Installing collected packages: decord\n","Successfully installed decord-0.6.0\n"]}],"source":["!pip install decord\n","import decord\n","\n","from decord import VideoReader\n","\n","music_list = []\n","label_list = []\n","for video_fname in mp4_files:\n","  vr = VideoReader(video_fname)\n","  frame = vr[100]\n","  frame_values = frame.asnumpy()\n","  im = Image.fromarray(frame_values)\n","  max_label, max_label_idx = classify(im, labels)\n","  music_list.append(mp3_files[max_label_idx])\n","  label_list.append(max_label)"]},{"cell_type":"code","execution_count":null,"metadata":{"colab":{"base_uri":"https://localhost:8080/"},"executionInfo":{"elapsed":2,"status":"ok","timestamp":1714089017073,"user":{"displayName":"Odin Huan","userId":"02251351221316418574"},"user_tz":240},"id":"uMzA-snx_jmf","outputId":"9668923e-46a2-4d7e-8c61-dfb093f07e89"},"outputs":[{"output_type":"stream","name":"stdout","text":["Bygone Era.mp3\n","Kittens Caprice.mp3\n","Bygone Era.mp3\n","Night Music.mp3\n","Kittens Caprice.mp3\n","Bygone Era.mp3\n","MoonForest inst.mp3\n","Kittens Caprice.mp3\n","Malmo Sunrise.mp3\n","MoonForest inst.mp3\n","MoonForest inst.mp3\n","Coppelia Room.mp3\n","Bygone Era.mp3\n"]}],"source":["for name in music_list:\n","  print(name)\n"]},{"cell_type":"code","execution_count":null,"metadata":{"colab":{"base_uri":"https://localhost:8080/"},"executionInfo":{"elapsed":294,"status":"ok","timestamp":1714089036001,"user":{"displayName":"Odin Huan","userId":"02251351221316418574"},"user_tz":240},"id":"8OqTUbb3AD6_","outputId":"530a9434-eea8-4a47-8226-159c180adca7"},"outputs":[{"output_type":"stream","name":"stdout","text":["No, Dual Illusions.mp3 is not in the current directory.\n"]}],"source":["\n","import os\n","\n","music_file_name = 'Dual Illusions.mp3'\n","is_music_file_present = os.path.isfile(music_file_name)\n","\n","if is_music_file_present:\n","    print(f'Yes, {music_file_name} is in the current directory.')\n","else:\n","    print(f'No, {music_file_name} is not in the current directory.')\n"]},{"cell_type":"code","execution_count":null,"metadata":{"colab":{"base_uri":"https://localhost:8080/"},"executionInfo":{"elapsed":294,"status":"ok","timestamp":1714089303167,"user":{"displayName":"Odin Huan","userId":"02251351221316418574"},"user_tz":240},"id":"VM07HdRPAftT","outputId":"3702010f-ce2b-4ad7-cba7-56286aa4d8aa"},"outputs":[{"output_type":"execute_result","data":{"text/plain":["['Bygone\\\\ Era.mp3',\n"," 'Kittens\\\\ Caprice.mp3',\n"," 'Bygone\\\\ Era.mp3',\n"," 'Night\\\\ Music.mp3',\n"," 'Kittens\\\\ Caprice.mp3',\n"," 'Bygone\\\\ Era.mp3',\n"," 'MoonForest\\\\ inst.mp3',\n"," 'Kittens\\\\ Caprice.mp3',\n"," 'Malmo\\\\ Sunrise.mp3',\n"," 'MoonForest\\\\ inst.mp3',\n"," 'MoonForest\\\\ inst.mp3',\n"," 'Coppelia\\\\ Room.mp3',\n"," 'Bygone\\\\ Era.mp3']"]},"metadata":{},"execution_count":15}],"source":["\n","mp3_files_formal = [file.replace(\" \", \"\\ \") for file in music_list]\n","mp3_files_formal\n","# mp4_files"]},{"cell_type":"code","execution_count":null,"metadata":{"colab":{"base_uri":"https://localhost:8080/"},"executionInfo":{"elapsed":3279,"status":"ok","timestamp":1714089318904,"user":{"displayName":"Odin Huan","userId":"02251351221316418574"},"user_tz":240},"id":"W-ZMttsG_qql","outputId":"b74afd2d-e06d-4b69-919a-cfa0ef4efd47"},"outputs":[{"output_type":"stream","name":"stdout","text":["ffmpeg version 4.4.2-0ubuntu0.22.04.1 Copyright (c) 2000-2021 the FFmpeg developers\n","  built with gcc 11 (Ubuntu 11.2.0-19ubuntu1)\n","  configuration: --prefix=/usr --extra-version=0ubuntu0.22.04.1 --toolchain=hardened --libdir=/usr/lib/x86_64-linux-gnu --incdir=/usr/include/x86_64-linux-gnu --arch=amd64 --enable-gpl --disable-stripping --enable-gnutls --enable-ladspa --enable-libaom --enable-libass --enable-libbluray --enable-libbs2b --enable-libcaca --enable-libcdio --enable-libcodec2 --enable-libdav1d --enable-libflite --enable-libfontconfig --enable-libfreetype --enable-libfribidi --enable-libgme --enable-libgsm --enable-libjack --enable-libmp3lame --enable-libmysofa --enable-libopenjpeg --enable-libopenmpt --enable-libopus --enable-libpulse --enable-librabbitmq --enable-librubberband --enable-libshine --enable-libsnappy --enable-libsoxr --enable-libspeex --enable-libsrt --enable-libssh --enable-libtheora --enable-libtwolame --enable-libvidstab --enable-libvorbis --enable-libvpx --enable-libwebp --enable-libx265 --enable-libxml2 --enable-libxvid --enable-libzimg --enable-libzmq --enable-libzvbi --enable-lv2 --enable-omx --enable-openal --enable-opencl --enable-opengl --enable-sdl2 --enable-pocketsphinx --enable-librsvg --enable-libmfx --enable-libdc1394 --enable-libdrm --enable-libiec61883 --enable-chromaprint --enable-frei0r --enable-libx264 --enable-shared\n","  libavutil      56. 70.100 / 56. 70.100\n","  libavcodec     58.134.100 / 58.134.100\n","  libavformat    58. 76.100 / 58. 76.100\n","  libavdevice    58. 13.100 / 58. 13.100\n","  libavfilter     7.110.100 /  7.110.100\n","  libswscale      5.  9.100 /  5.  9.100\n","  libswresample   3.  9.100 /  3.  9.100\n","  libpostproc    55.  9.100 / 55.  9.100\n","Input #0, mov,mp4,m4a,3gp,3g2,mj2, from 'Q300085_short.mp4':\n","  Metadata:\n","    major_brand     : isom\n","    minor_version   : 512\n","    compatible_brands: isomiso2avc1mp41\n","    encoder         : Lavf58.76.100\n","  Duration: 00:00:24.72, start: 0.000000, bitrate: 1073 kb/s\n","  Stream #0:0(und): Video: h264 (High) (avc1 / 0x31637661), yuv420p, 640x360, 1071 kb/s, 25 fps, 25 tbr, 12800 tbn, 50 tbc (default)\n","    Metadata:\n","      handler_name    : VideoHandler\n","      vendor_id       : [0][0][0][0]\n","Input #1, mp3, from 'Bygone Era.mp3':\n","  Metadata:\n","    artist          : PeriTune\n","    encoder         : Studio One 6.5.2.97444\n","    TBPM            : 120\n","    date            : 2024\n","  Duration: 00:02:03.40, start: 0.025057, bitrate: 192 kb/s\n","  Stream #1:0: Audio: mp3, 44100 Hz, stereo, fltp, 192 kb/s\n","    Metadata:\n","      encoder         : LAME3.100\n","Output #0, mp4, to 'out_clip30_22_compare_21_0.mp4':\n","  Metadata:\n","    major_brand     : isom\n","    minor_version   : 512\n","    compatible_brands: isomiso2avc1mp41\n","    encoder         : Lavf58.76.100\n","  Stream #0:0(und): Video: h264 (High) (avc1 / 0x31637661), yuv420p, 640x360, q=2-31, 1071 kb/s, 25 fps, 25 tbr, 12800 tbn, 12800 tbc (default)\n","    Metadata:\n","      handler_name    : VideoHandler\n","      vendor_id       : [0][0][0][0]\n","  Stream #0:1: Audio: mp3 (mp4a / 0x6134706D), 44100 Hz, stereo, fltp, 192 kb/s\n","    Metadata:\n","      encoder         : LAME3.100\n","Stream mapping:\n","  Stream #0:0 -> #0:0 (copy)\n","  Stream #1:0 -> #0:1 (copy)\n","Press [q] to stop, [?] for help\n","frame=    1 fps=0.0 q=-1.0 size=       0kB time=00:00:00.00 bitrate=N/A speed=   0x    \rframe=  618 fps=0.0 q=-1.0 Lsize=    3834kB time=00:00:24.60 bitrate=1276.2kbits/s speed= 841x    \n","video:3232kB audio:578kB subtitle:0kB other streams:0kB global headers:0kB muxing overhead: 0.615348%\n","ffmpeg version 4.4.2-0ubuntu0.22.04.1 Copyright (c) 2000-2021 the FFmpeg developers\n","  built with gcc 11 (Ubuntu 11.2.0-19ubuntu1)\n","  configuration: --prefix=/usr --extra-version=0ubuntu0.22.04.1 --toolchain=hardened --libdir=/usr/lib/x86_64-linux-gnu --incdir=/usr/include/x86_64-linux-gnu --arch=amd64 --enable-gpl --disable-stripping --enable-gnutls --enable-ladspa --enable-libaom --enable-libass --enable-libbluray --enable-libbs2b --enable-libcaca --enable-libcdio --enable-libcodec2 --enable-libdav1d --enable-libflite --enable-libfontconfig --enable-libfreetype --enable-libfribidi --enable-libgme --enable-libgsm --enable-libjack --enable-libmp3lame --enable-libmysofa --enable-libopenjpeg --enable-libopenmpt --enable-libopus --enable-libpulse --enable-librabbitmq --enable-librubberband --enable-libshine --enable-libsnappy --enable-libsoxr --enable-libspeex --enable-libsrt --enable-libssh --enable-libtheora --enable-libtwolame --enable-libvidstab --enable-libvorbis --enable-libvpx --enable-libwebp --enable-libx265 --enable-libxml2 --enable-libxvid --enable-libzimg --enable-libzmq --enable-libzvbi --enable-lv2 --enable-omx --enable-openal --enable-opencl --enable-opengl --enable-sdl2 --enable-pocketsphinx --enable-librsvg --enable-libmfx --enable-libdc1394 --enable-libdrm --enable-libiec61883 --enable-chromaprint --enable-frei0r --enable-libx264 --enable-shared\n","  libavutil      56. 70.100 / 56. 70.100\n","  libavcodec     58.134.100 / 58.134.100\n","  libavformat    58. 76.100 / 58. 76.100\n","  libavdevice    58. 13.100 / 58. 13.100\n","  libavfilter     7.110.100 /  7.110.100\n","  libswscale      5.  9.100 /  5.  9.100\n","  libswresample   3.  9.100 /  3.  9.100\n","  libpostproc    55.  9.100 / 55.  9.100\n","Input #0, mov,mp4,m4a,3gp,3g2,mj2, from 'Q300088_short.mp4':\n","  Metadata:\n","    major_brand     : isom\n","    minor_version   : 512\n","    compatible_brands: isomiso2avc1mp41\n","    encoder         : Lavf58.76.100\n","  Duration: 00:00:30.03, start: 0.000000, bitrate: 403 kb/s\n","  Stream #0:0(und): Video: h264 (High) (avc1 / 0x31637661), yuv420p, 480x360, 400 kb/s, 29.97 fps, 29.97 tbr, 11988 tbn, 59.94 tbc (default)\n","    Metadata:\n","      handler_name    : VideoHandler\n","      vendor_id       : [0][0][0][0]\n","Input #1, mp3, from 'Kittens Caprice.mp3':\n","  Metadata:\n","    artist          : PeriTune\n","    encoder         : Studio One 6.6.0.99237\n","    TBPM            : 120\n","    date            : 2024\n","  Duration: 00:01:27.54, start: 0.025057, bitrate: 192 kb/s\n","  Stream #1:0: Audio: mp3, 44100 Hz, stereo, fltp, 192 kb/s\n","    Metadata:\n","      encoder         : LAME3.100\n","Output #0, mp4, to 'out_clip30_22_compare_21_1.mp4':\n","  Metadata:\n","    major_brand     : isom\n","    minor_version   : 512\n","    compatible_brands: isomiso2avc1mp41\n","    encoder         : Lavf58.76.100\n","  Stream #0:0(und): Video: h264 (High) (avc1 / 0x31637661), yuv420p, 480x360, q=2-31, 400 kb/s, 29.97 fps, 29.97 tbr, 11988 tbn, 11988 tbc (default)\n","    Metadata:\n","      handler_name    : VideoHandler\n","      vendor_id       : [0][0][0][0]\n","  Stream #0:1: Audio: mp3 (mp4a / 0x6134706D), 44100 Hz, stereo, fltp, 192 kb/s\n","    Metadata:\n","      encoder         : LAME3.100\n","Stream mapping:\n","  Stream #0:0 -> #0:0 (copy)\n","  Stream #1:0 -> #0:1 (copy)\n","Press [q] to stop, [?] for help\n","frame=  900 fps=0.0 q=-1.0 Lsize=    2200kB time=00:00:29.93 bitrate= 602.1kbits/s speed= 895x    \n","video:1468kB audio:703kB subtitle:0kB other streams:0kB global headers:0kB muxing overhead: 1.342265%\n","ffmpeg version 4.4.2-0ubuntu0.22.04.1 Copyright (c) 2000-2021 the FFmpeg developers\n","  built with gcc 11 (Ubuntu 11.2.0-19ubuntu1)\n","  configuration: --prefix=/usr --extra-version=0ubuntu0.22.04.1 --toolchain=hardened --libdir=/usr/lib/x86_64-linux-gnu --incdir=/usr/include/x86_64-linux-gnu --arch=amd64 --enable-gpl --disable-stripping --enable-gnutls --enable-ladspa --enable-libaom --enable-libass --enable-libbluray --enable-libbs2b --enable-libcaca --enable-libcdio --enable-libcodec2 --enable-libdav1d --enable-libflite --enable-libfontconfig --enable-libfreetype --enable-libfribidi --enable-libgme --enable-libgsm --enable-libjack --enable-libmp3lame --enable-libmysofa --enable-libopenjpeg --enable-libopenmpt --enable-libopus --enable-libpulse --enable-librabbitmq --enable-librubberband --enable-libshine --enable-libsnappy --enable-libsoxr --enable-libspeex --enable-libsrt --enable-libssh --enable-libtheora --enable-libtwolame --enable-libvidstab --enable-libvorbis --enable-libvpx --enable-libwebp --enable-libx265 --enable-libxml2 --enable-libxvid --enable-libzimg --enable-libzmq --enable-libzvbi --enable-lv2 --enable-omx --enable-openal --enable-opencl --enable-opengl --enable-sdl2 --enable-pocketsphinx --enable-librsvg --enable-libmfx --enable-libdc1394 --enable-libdrm --enable-libiec61883 --enable-chromaprint --enable-frei0r --enable-libx264 --enable-shared\n","  libavutil      56. 70.100 / 56. 70.100\n","  libavcodec     58.134.100 / 58.134.100\n","  libavformat    58. 76.100 / 58. 76.100\n","  libavdevice    58. 13.100 / 58. 13.100\n","  libavfilter     7.110.100 /  7.110.100\n","  libswscale      5.  9.100 /  5.  9.100\n","  libswresample   3.  9.100 /  3.  9.100\n","  libpostproc    55.  9.100 / 55.  9.100\n","Input #0, mov,mp4,m4a,3gp,3g2,mj2, from 'Q300097_short.mp4':\n","  Metadata:\n","    major_brand     : isom\n","    minor_version   : 512\n","    compatible_brands: isomiso2avc1mp41\n","    encoder         : Lavf58.76.100\n","  Duration: 00:00:30.03, start: 0.000000, bitrate: 271 kb/s\n","  Stream #0:0(und): Video: h264 (High) (avc1 / 0x31637661), yuv420p, 640x360, 268 kb/s, 29.97 fps, 29.97 tbr, 11988 tbn, 59.94 tbc (default)\n","    Metadata:\n","      handler_name    : VideoHandler\n","      vendor_id       : [0][0][0][0]\n","Input #1, mp3, from 'Bygone Era.mp3':\n","  Metadata:\n","    artist          : PeriTune\n","    encoder         : Studio One 6.5.2.97444\n","    TBPM            : 120\n","    date            : 2024\n","  Duration: 00:02:03.40, start: 0.025057, bitrate: 192 kb/s\n","  Stream #1:0: Audio: mp3, 44100 Hz, stereo, fltp, 192 kb/s\n","    Metadata:\n","      encoder         : LAME3.100\n","Output #0, mp4, to 'out_clip30_22_compare_21_2.mp4':\n","  Metadata:\n","    major_brand     : isom\n","    minor_version   : 512\n","    compatible_brands: isomiso2avc1mp41\n","    encoder         : Lavf58.76.100\n","  Stream #0:0(und): Video: h264 (High) (avc1 / 0x31637661), yuv420p, 640x360, q=2-31, 268 kb/s, 29.97 fps, 29.97 tbr, 11988 tbn, 11988 tbc (default)\n","    Metadata:\n","      handler_name    : VideoHandler\n","      vendor_id       : [0][0][0][0]\n","  Stream #0:1: Audio: mp3 (mp4a / 0x6134706D), 44100 Hz, stereo, fltp, 192 kb/s\n","    Metadata:\n","      encoder         : LAME3.100\n","Stream mapping:\n","  Stream #0:0 -> #0:0 (copy)\n","  Stream #1:0 -> #0:1 (copy)\n","Press [q] to stop, [?] for help\n","frame=  900 fps=0.0 q=-1.0 Lsize=    1718kB time=00:00:29.93 bitrate= 470.1kbits/s speed= 948x    \n","video:986kB audio:703kB subtitle:0kB other streams:0kB global headers:0kB muxing overhead: 1.727260%\n","ffmpeg version 4.4.2-0ubuntu0.22.04.1 Copyright (c) 2000-2021 the FFmpeg developers\n","  built with gcc 11 (Ubuntu 11.2.0-19ubuntu1)\n","  configuration: --prefix=/usr --extra-version=0ubuntu0.22.04.1 --toolchain=hardened --libdir=/usr/lib/x86_64-linux-gnu --incdir=/usr/include/x86_64-linux-gnu --arch=amd64 --enable-gpl --disable-stripping --enable-gnutls --enable-ladspa --enable-libaom --enable-libass --enable-libbluray --enable-libbs2b --enable-libcaca --enable-libcdio --enable-libcodec2 --enable-libdav1d --enable-libflite --enable-libfontconfig --enable-libfreetype --enable-libfribidi --enable-libgme --enable-libgsm --enable-libjack --enable-libmp3lame --enable-libmysofa --enable-libopenjpeg --enable-libopenmpt --enable-libopus --enable-libpulse --enable-librabbitmq --enable-librubberband --enable-libshine --enable-libsnappy --enable-libsoxr --enable-libspeex --enable-libsrt --enable-libssh --enable-libtheora --enable-libtwolame --enable-libvidstab --enable-libvorbis --enable-libvpx --enable-libwebp --enable-libx265 --enable-libxml2 --enable-libxvid --enable-libzimg --enable-libzmq --enable-libzvbi --enable-lv2 --enable-omx --enable-openal --enable-opencl --enable-opengl --enable-sdl2 --enable-pocketsphinx --enable-librsvg --enable-libmfx --enable-libdc1394 --enable-libdrm --enable-libiec61883 --enable-chromaprint --enable-frei0r --enable-libx264 --enable-shared\n","  libavutil      56. 70.100 / 56. 70.100\n","  libavcodec     58.134.100 / 58.134.100\n","  libavformat    58. 76.100 / 58. 76.100\n","  libavdevice    58. 13.100 / 58. 13.100\n","  libavfilter     7.110.100 /  7.110.100\n","  libswscale      5.  9.100 /  5.  9.100\n","  libswresample   3.  9.100 /  3.  9.100\n","  libpostproc    55.  9.100 / 55.  9.100\n","Input #0, mov,mp4,m4a,3gp,3g2,mj2, from 'Q300098_short.mp4':\n","  Metadata:\n","    major_brand     : isom\n","    minor_version   : 512\n","    compatible_brands: isomiso2avc1mp41\n","    encoder         : Lavf58.76.100\n","  Duration: 00:00:30.03, start: 0.000000, bitrate: 720 kb/s\n","  Stream #0:0(und): Video: h264 (High) (avc1 / 0x31637661), yuv420p, 480x360, 716 kb/s, 29.97 fps, 29.97 tbr, 11988 tbn, 59.94 tbc (default)\n","    Metadata:\n","      handler_name    : VideoHandler\n","      vendor_id       : [0][0][0][0]\n","Input #1, mp3, from 'Night Music.mp3':\n","  Metadata:\n","    title           : Night Music – Kevin MacLeod (No Copyright Music)\n","    artist          : Audio Library — Music for content creators\n","    comment         : online-audio-converter.com\n","  Duration: 00:03:28.17, start: 0.025057, bitrate: 128 kb/s\n","  Stream #1:0: Audio: mp3, 44100 Hz, stereo, fltp, 128 kb/s\n","    Metadata:\n","      encoder         : Lavc59.37\n","Output #0, mp4, to 'out_clip30_22_compare_21_3.mp4':\n","  Metadata:\n","    major_brand     : isom\n","    minor_version   : 512\n","    compatible_brands: isomiso2avc1mp41\n","    encoder         : Lavf58.76.100\n","  Stream #0:0(und): Video: h264 (High) (avc1 / 0x31637661), yuv420p, 480x360, q=2-31, 716 kb/s, 29.97 fps, 29.97 tbr, 11988 tbn, 11988 tbc (default)\n","    Metadata:\n","      handler_name    : VideoHandler\n","      vendor_id       : [0][0][0][0]\n","  Stream #0:1: Audio: mp3 (mp4a / 0x6134706D), 44100 Hz, stereo, fltp, 128 kb/s\n","    Metadata:\n","      encoder         : Lavc59.37\n","Stream mapping:\n","  Stream #0:0 -> #0:0 (copy)\n","  Stream #1:0 -> #0:1 (copy)\n","Press [q] to stop, [?] for help\n","frame=  900 fps=0.0 q=-1.0 Lsize=    3126kB time=00:00:29.93 bitrate= 855.4kbits/s speed=1.39e+03x    \n","video:2628kB audio:469kB subtitle:0kB other streams:0kB global headers:0kB muxing overhead: 0.943144%\n","ffmpeg version 4.4.2-0ubuntu0.22.04.1 Copyright (c) 2000-2021 the FFmpeg developers\n","  built with gcc 11 (Ubuntu 11.2.0-19ubuntu1)\n","  configuration: --prefix=/usr --extra-version=0ubuntu0.22.04.1 --toolchain=hardened --libdir=/usr/lib/x86_64-linux-gnu --incdir=/usr/include/x86_64-linux-gnu --arch=amd64 --enable-gpl --disable-stripping --enable-gnutls --enable-ladspa --enable-libaom --enable-libass --enable-libbluray --enable-libbs2b --enable-libcaca --enable-libcdio --enable-libcodec2 --enable-libdav1d --enable-libflite --enable-libfontconfig --enable-libfreetype --enable-libfribidi --enable-libgme --enable-libgsm --enable-libjack --enable-libmp3lame --enable-libmysofa --enable-libopenjpeg --enable-libopenmpt --enable-libopus --enable-libpulse --enable-librabbitmq --enable-librubberband --enable-libshine --enable-libsnappy --enable-libsoxr --enable-libspeex --enable-libsrt --enable-libssh --enable-libtheora --enable-libtwolame --enable-libvidstab --enable-libvorbis --enable-libvpx --enable-libwebp --enable-libx265 --enable-libxml2 --enable-libxvid --enable-libzimg --enable-libzmq --enable-libzvbi --enable-lv2 --enable-omx --enable-openal --enable-opencl --enable-opengl --enable-sdl2 --enable-pocketsphinx --enable-librsvg --enable-libmfx --enable-libdc1394 --enable-libdrm --enable-libiec61883 --enable-chromaprint --enable-frei0r --enable-libx264 --enable-shared\n","  libavutil      56. 70.100 / 56. 70.100\n","  libavcodec     58.134.100 / 58.134.100\n","  libavformat    58. 76.100 / 58. 76.100\n","  libavdevice    58. 13.100 / 58. 13.100\n","  libavfilter     7.110.100 /  7.110.100\n","  libswscale      5.  9.100 /  5.  9.100\n","  libswresample   3.  9.100 /  3.  9.100\n","  libpostproc    55.  9.100 / 55.  9.100\n","Input #0, mov,mp4,m4a,3gp,3g2,mj2, from 'Q300110_short.mp4':\n","  Metadata:\n","    major_brand     : isom\n","    minor_version   : 512\n","    compatible_brands: isomiso2avc1mp41\n","    encoder         : Lavf58.76.100\n","  Duration: 00:00:21.79, start: 0.000000, bitrate: 1037 kb/s\n","  Stream #0:0(und): Video: h264 (High) (avc1 / 0x31637661), yuv420p, 480x360, 1033 kb/s, 29.97 fps, 29.97 tbr, 11988 tbn, 59.94 tbc (default)\n","    Metadata:\n","      handler_name    : VideoHandler\n","      vendor_id       : [0][0][0][0]\n","Input #1, mp3, from 'Kittens Caprice.mp3':\n","  Metadata:\n","    artist          : PeriTune\n","    encoder         : Studio One 6.6.0.99237\n","    TBPM            : 120\n","    date            : 2024\n","  Duration: 00:01:27.54, start: 0.025057, bitrate: 192 kb/s\n","  Stream #1:0: Audio: mp3, 44100 Hz, stereo, fltp, 192 kb/s\n","    Metadata:\n","      encoder         : LAME3.100\n","Output #0, mp4, to 'out_clip30_22_compare_21_4.mp4':\n","  Metadata:\n","    major_brand     : isom\n","    minor_version   : 512\n","    compatible_brands: isomiso2avc1mp41\n","    encoder         : Lavf58.76.100\n","  Stream #0:0(und): Video: h264 (High) (avc1 / 0x31637661), yuv420p, 480x360, q=2-31, 1033 kb/s, 29.97 fps, 29.97 tbr, 11988 tbn, 11988 tbc (default)\n","    Metadata:\n","      handler_name    : VideoHandler\n","      vendor_id       : [0][0][0][0]\n","  Stream #0:1: Audio: mp3 (mp4a / 0x6134706D), 44100 Hz, stereo, fltp, 192 kb/s\n","    Metadata:\n","      encoder         : LAME3.100\n","Stream mapping:\n","  Stream #0:0 -> #0:0 (copy)\n","  Stream #1:0 -> #0:1 (copy)\n","Press [q] to stop, [?] for help\n","frame=  653 fps=0.0 q=-1.0 Lsize=    3281kB time=00:00:21.70 bitrate=1238.2kbits/s speed= 789x    \n","video:2750kB audio:510kB subtitle:0kB other streams:0kB global headers:0kB muxing overhead: 0.651428%\n","ffmpeg version 4.4.2-0ubuntu0.22.04.1 Copyright (c) 2000-2021 the FFmpeg developers\n","  built with gcc 11 (Ubuntu 11.2.0-19ubuntu1)\n","  configuration: --prefix=/usr --extra-version=0ubuntu0.22.04.1 --toolchain=hardened --libdir=/usr/lib/x86_64-linux-gnu --incdir=/usr/include/x86_64-linux-gnu --arch=amd64 --enable-gpl --disable-stripping --enable-gnutls --enable-ladspa --enable-libaom --enable-libass --enable-libbluray --enable-libbs2b --enable-libcaca --enable-libcdio --enable-libcodec2 --enable-libdav1d --enable-libflite --enable-libfontconfig --enable-libfreetype --enable-libfribidi --enable-libgme --enable-libgsm --enable-libjack --enable-libmp3lame --enable-libmysofa --enable-libopenjpeg --enable-libopenmpt --enable-libopus --enable-libpulse --enable-librabbitmq --enable-librubberband --enable-libshine --enable-libsnappy --enable-libsoxr --enable-libspeex --enable-libsrt --enable-libssh --enable-libtheora --enable-libtwolame --enable-libvidstab --enable-libvorbis --enable-libvpx --enable-libwebp --enable-libx265 --enable-libxml2 --enable-libxvid --enable-libzimg --enable-libzmq --enable-libzvbi --enable-lv2 --enable-omx --enable-openal --enable-opencl --enable-opengl --enable-sdl2 --enable-pocketsphinx --enable-librsvg --enable-libmfx --enable-libdc1394 --enable-libdrm --enable-libiec61883 --enable-chromaprint --enable-frei0r --enable-libx264 --enable-shared\n","  libavutil      56. 70.100 / 56. 70.100\n","  libavcodec     58.134.100 / 58.134.100\n","  libavformat    58. 76.100 / 58. 76.100\n","  libavdevice    58. 13.100 / 58. 13.100\n","  libavfilter     7.110.100 /  7.110.100\n","  libswscale      5.  9.100 /  5.  9.100\n","  libswresample   3.  9.100 /  3.  9.100\n","  libpostproc    55.  9.100 / 55.  9.100\n","Input #0, mov,mp4,m4a,3gp,3g2,mj2, from 'Q300121_short.mp4':\n","  Metadata:\n","    major_brand     : isom\n","    minor_version   : 512\n","    compatible_brands: isomiso2avc1mp41\n","    encoder         : Lavf58.76.100\n","  Duration: 00:00:30.03, start: 0.000000, bitrate: 957 kb/s\n","  Stream #0:0(und): Video: h264 (High) (avc1 / 0x31637661), yuv420p, 640x360, 955 kb/s, 23.98 fps, 23.98 tbr, 11988 tbn, 47.95 tbc (default)\n","    Metadata:\n","      handler_name    : VideoHandler\n","      vendor_id       : [0][0][0][0]\n","Input #1, mp3, from 'Bygone Era.mp3':\n","  Metadata:\n","    artist          : PeriTune\n","    encoder         : Studio One 6.5.2.97444\n","    TBPM            : 120\n","    date            : 2024\n","  Duration: 00:02:03.40, start: 0.025057, bitrate: 192 kb/s\n","  Stream #1:0: Audio: mp3, 44100 Hz, stereo, fltp, 192 kb/s\n","    Metadata:\n","      encoder         : LAME3.100\n","Output #0, mp4, to 'out_clip30_22_compare_21_5.mp4':\n","  Metadata:\n","    major_brand     : isom\n","    minor_version   : 512\n","    compatible_brands: isomiso2avc1mp41\n","    encoder         : Lavf58.76.100\n","  Stream #0:0(und): Video: h264 (High) (avc1 / 0x31637661), yuv420p, 640x360, q=2-31, 955 kb/s, 23.98 fps, 23.98 tbr, 11988 tbn, 11988 tbc (default)\n","    Metadata:\n","      handler_name    : VideoHandler\n","      vendor_id       : [0][0][0][0]\n","  Stream #0:1: Audio: mp3 (mp4a / 0x6134706D), 44100 Hz, stereo, fltp, 192 kb/s\n","    Metadata:\n","      encoder         : LAME3.100\n","Stream mapping:\n","  Stream #0:0 -> #0:0 (copy)\n","  Stream #1:0 -> #0:1 (copy)\n","Press [q] to stop, [?] for help\n","frame=  720 fps=0.0 q=-1.0 Lsize=    4231kB time=00:00:29.91 bitrate=1158.8kbits/s speed= 888x    \n","video:3502kB audio:702kB subtitle:0kB other streams:0kB global headers:0kB muxing overhead: 0.632371%\n","ffmpeg version 4.4.2-0ubuntu0.22.04.1 Copyright (c) 2000-2021 the FFmpeg developers\n","  built with gcc 11 (Ubuntu 11.2.0-19ubuntu1)\n","  configuration: --prefix=/usr --extra-version=0ubuntu0.22.04.1 --toolchain=hardened --libdir=/usr/lib/x86_64-linux-gnu --incdir=/usr/include/x86_64-linux-gnu --arch=amd64 --enable-gpl --disable-stripping --enable-gnutls --enable-ladspa --enable-libaom --enable-libass --enable-libbluray --enable-libbs2b --enable-libcaca --enable-libcdio --enable-libcodec2 --enable-libdav1d --enable-libflite --enable-libfontconfig --enable-libfreetype --enable-libfribidi --enable-libgme --enable-libgsm --enable-libjack --enable-libmp3lame --enable-libmysofa --enable-libopenjpeg --enable-libopenmpt --enable-libopus --enable-libpulse --enable-librabbitmq --enable-librubberband --enable-libshine --enable-libsnappy --enable-libsoxr --enable-libspeex --enable-libsrt --enable-libssh --enable-libtheora --enable-libtwolame --enable-libvidstab --enable-libvorbis --enable-libvpx --enable-libwebp --enable-libx265 --enable-libxml2 --enable-libxvid --enable-libzimg --enable-libzmq --enable-libzvbi --enable-lv2 --enable-omx --enable-openal --enable-opencl --enable-opengl --enable-sdl2 --enable-pocketsphinx --enable-librsvg --enable-libmfx --enable-libdc1394 --enable-libdrm --enable-libiec61883 --enable-chromaprint --enable-frei0r --enable-libx264 --enable-shared\n","  libavutil      56. 70.100 / 56. 70.100\n","  libavcodec     58.134.100 / 58.134.100\n","  libavformat    58. 76.100 / 58. 76.100\n","  libavdevice    58. 13.100 / 58. 13.100\n","  libavfilter     7.110.100 /  7.110.100\n","  libswscale      5.  9.100 /  5.  9.100\n","  libswresample   3.  9.100 /  3.  9.100\n","  libpostproc    55.  9.100 / 55.  9.100\n","Input #0, mov,mp4,m4a,3gp,3g2,mj2, from 'Q300166_short.mp4':\n","  Metadata:\n","    major_brand     : isom\n","    minor_version   : 512\n","    compatible_brands: isomiso2avc1mp41\n","    encoder         : Lavf58.76.100\n","  Duration: 00:00:20.00, start: 0.000000, bitrate: 915 kb/s\n","  Stream #0:0(und): Video: h264 (High) (avc1 / 0x31637661), yuv420p, 640x360, 913 kb/s, 24 fps, 24 tbr, 12288 tbn, 48 tbc (default)\n","    Metadata:\n","      handler_name    : VideoHandler\n","      vendor_id       : [0][0][0][0]\n","Input #1, mp3, from 'MoonForest inst.mp3':\n","  Metadata:\n","    artist          : PeriTune\n","    encoder         : Studio One 5.5.2.86528\n","    TBPM            : 190\n","    date            : 2022\n","  Duration: 00:02:43.74, start: 0.025057, bitrate: 192 kb/s\n","  Stream #1:0: Audio: mp3, 44100 Hz, stereo, fltp, 192 kb/s\n","    Metadata:\n","      encoder         : LAME3.100\n","Output #0, mp4, to 'out_clip30_22_compare_21_6.mp4':\n","  Metadata:\n","    major_brand     : isom\n","    minor_version   : 512\n","    compatible_brands: isomiso2avc1mp41\n","    encoder         : Lavf58.76.100\n","  Stream #0:0(und): Video: h264 (High) (avc1 / 0x31637661), yuv420p, 640x360, q=2-31, 913 kb/s, 24 fps, 24 tbr, 12288 tbn, 12288 tbc (default)\n","    Metadata:\n","      handler_name    : VideoHandler\n","      vendor_id       : [0][0][0][0]\n","  Stream #0:1: Audio: mp3 (mp4a / 0x6134706D), 44100 Hz, stereo, fltp, 192 kb/s\n","    Metadata:\n","      encoder         : LAME3.100\n","Stream mapping:\n","  Stream #0:0 -> #0:0 (copy)\n","  Stream #1:0 -> #0:1 (copy)\n","Press [q] to stop, [?] for help\n","frame=  480 fps=0.0 q=-1.0 Lsize=    2715kB time=00:00:19.88 bitrate=1118.6kbits/s speed= 779x    \n","video:2229kB audio:467kB subtitle:0kB other streams:0kB global headers:0kB muxing overhead: 0.664461%\n","ffmpeg version 4.4.2-0ubuntu0.22.04.1 Copyright (c) 2000-2021 the FFmpeg developers\n","  built with gcc 11 (Ubuntu 11.2.0-19ubuntu1)\n","  configuration: --prefix=/usr --extra-version=0ubuntu0.22.04.1 --toolchain=hardened --libdir=/usr/lib/x86_64-linux-gnu --incdir=/usr/include/x86_64-linux-gnu --arch=amd64 --enable-gpl --disable-stripping --enable-gnutls --enable-ladspa --enable-libaom --enable-libass --enable-libbluray --enable-libbs2b --enable-libcaca --enable-libcdio --enable-libcodec2 --enable-libdav1d --enable-libflite --enable-libfontconfig --enable-libfreetype --enable-libfribidi --enable-libgme --enable-libgsm --enable-libjack --enable-libmp3lame --enable-libmysofa --enable-libopenjpeg --enable-libopenmpt --enable-libopus --enable-libpulse --enable-librabbitmq --enable-librubberband --enable-libshine --enable-libsnappy --enable-libsoxr --enable-libspeex --enable-libsrt --enable-libssh --enable-libtheora --enable-libtwolame --enable-libvidstab --enable-libvorbis --enable-libvpx --enable-libwebp --enable-libx265 --enable-libxml2 --enable-libxvid --enable-libzimg --enable-libzmq --enable-libzvbi --enable-lv2 --enable-omx --enable-openal --enable-opencl --enable-opengl --enable-sdl2 --enable-pocketsphinx --enable-librsvg --enable-libmfx --enable-libdc1394 --enable-libdrm --enable-libiec61883 --enable-chromaprint --enable-frei0r --enable-libx264 --enable-shared\n","  libavutil      56. 70.100 / 56. 70.100\n","  libavcodec     58.134.100 / 58.134.100\n","  libavformat    58. 76.100 / 58. 76.100\n","  libavdevice    58. 13.100 / 58. 13.100\n","  libavfilter     7.110.100 /  7.110.100\n","  libswscale      5.  9.100 /  5.  9.100\n","  libswresample   3.  9.100 /  3.  9.100\n","  libpostproc    55.  9.100 / 55.  9.100\n","Input #0, mov,mp4,m4a,3gp,3g2,mj2, from 'Q300175_short.mp4':\n","  Metadata:\n","    major_brand     : isom\n","    minor_version   : 512\n","    compatible_brands: isomiso2avc1mp41\n","    encoder         : Lavf58.76.100\n","  Duration: 00:00:30.03, start: 0.000000, bitrate: 648 kb/s\n","  Stream #0:0(und): Video: h264 (High) (avc1 / 0x31637661), yuv420p, 480x360, 645 kb/s, 29.97 fps, 29.97 tbr, 11988 tbn, 59.94 tbc (default)\n","    Metadata:\n","      handler_name    : VideoHandler\n","      vendor_id       : [0][0][0][0]\n","Input #1, mp3, from 'Kittens Caprice.mp3':\n","  Metadata:\n","    artist          : PeriTune\n","    encoder         : Studio One 6.6.0.99237\n","    TBPM            : 120\n","    date            : 2024\n","  Duration: 00:01:27.54, start: 0.025057, bitrate: 192 kb/s\n","  Stream #1:0: Audio: mp3, 44100 Hz, stereo, fltp, 192 kb/s\n","    Metadata:\n","      encoder         : LAME3.100\n","Output #0, mp4, to 'out_clip30_22_compare_21_7.mp4':\n","  Metadata:\n","    major_brand     : isom\n","    minor_version   : 512\n","    compatible_brands: isomiso2avc1mp41\n","    encoder         : Lavf58.76.100\n","  Stream #0:0(und): Video: h264 (High) (avc1 / 0x31637661), yuv420p, 480x360, q=2-31, 645 kb/s, 29.97 fps, 29.97 tbr, 11988 tbn, 11988 tbc (default)\n","    Metadata:\n","      handler_name    : VideoHandler\n","      vendor_id       : [0][0][0][0]\n","  Stream #0:1: Audio: mp3 (mp4a / 0x6134706D), 44100 Hz, stereo, fltp, 192 kb/s\n","    Metadata:\n","      encoder         : LAME3.100\n","Stream mapping:\n","  Stream #0:0 -> #0:0 (copy)\n","  Stream #1:0 -> #0:1 (copy)\n","Press [q] to stop, [?] for help\n","frame=  900 fps=0.0 q=-1.0 Lsize=    3100kB time=00:00:29.93 bitrate= 848.2kbits/s speed= 736x    \n","video:2368kB audio:703kB subtitle:0kB other streams:0kB global headers:0kB muxing overhead: 0.949362%\n","ffmpeg version 4.4.2-0ubuntu0.22.04.1 Copyright (c) 2000-2021 the FFmpeg developers\n","  built with gcc 11 (Ubuntu 11.2.0-19ubuntu1)\n","  configuration: --prefix=/usr --extra-version=0ubuntu0.22.04.1 --toolchain=hardened --libdir=/usr/lib/x86_64-linux-gnu --incdir=/usr/include/x86_64-linux-gnu --arch=amd64 --enable-gpl --disable-stripping --enable-gnutls --enable-ladspa --enable-libaom --enable-libass --enable-libbluray --enable-libbs2b --enable-libcaca --enable-libcdio --enable-libcodec2 --enable-libdav1d --enable-libflite --enable-libfontconfig --enable-libfreetype --enable-libfribidi --enable-libgme --enable-libgsm --enable-libjack --enable-libmp3lame --enable-libmysofa --enable-libopenjpeg --enable-libopenmpt --enable-libopus --enable-libpulse --enable-librabbitmq --enable-librubberband --enable-libshine --enable-libsnappy --enable-libsoxr --enable-libspeex --enable-libsrt --enable-libssh --enable-libtheora --enable-libtwolame --enable-libvidstab --enable-libvorbis --enable-libvpx --enable-libwebp --enable-libx265 --enable-libxml2 --enable-libxvid --enable-libzimg --enable-libzmq --enable-libzvbi --enable-lv2 --enable-omx --enable-openal --enable-opencl --enable-opengl --enable-sdl2 --enable-pocketsphinx --enable-librsvg --enable-libmfx --enable-libdc1394 --enable-libdrm --enable-libiec61883 --enable-chromaprint --enable-frei0r --enable-libx264 --enable-shared\n","  libavutil      56. 70.100 / 56. 70.100\n","  libavcodec     58.134.100 / 58.134.100\n","  libavformat    58. 76.100 / 58. 76.100\n","  libavdevice    58. 13.100 / 58. 13.100\n","  libavfilter     7.110.100 /  7.110.100\n","  libswscale      5.  9.100 /  5.  9.100\n","  libswresample   3.  9.100 /  3.  9.100\n","  libpostproc    55.  9.100 / 55.  9.100\n","Input #0, mov,mp4,m4a,3gp,3g2,mj2, from 'Q300187_short.mp4':\n","  Metadata:\n","    major_brand     : isom\n","    minor_version   : 512\n","    compatible_brands: isomiso2avc1mp41\n","    encoder         : Lavf58.76.100\n","  Duration: 00:00:19.95, start: 0.000000, bitrate: 457 kb/s\n","  Stream #0:0(und): Video: h264 (High) (avc1 / 0x31637661), yuv420p, 480x360, 453 kb/s, 29.97 fps, 29.97 tbr, 11988 tbn, 59.94 tbc (default)\n","    Metadata:\n","      handler_name    : VideoHandler\n","      vendor_id       : [0][0][0][0]\n","Input #1, mp3, from 'Malmo Sunrise.mp3':\n","  Metadata:\n","    title           : 歌名: Malmo Sunrise 作者: The 126ers | Pop | 流行 NCS Music\n","    artist          : 血小板\n","    comment         : online-audio-converter.com\n","  Duration: 00:02:46.35, start: 0.025057, bitrate: 128 kb/s\n","  Stream #1:0: Audio: mp3, 44100 Hz, stereo, fltp, 128 kb/s\n","    Metadata:\n","      encoder         : Lavc59.37\n","Output #0, mp4, to 'out_clip30_22_compare_21_8.mp4':\n","  Metadata:\n","    major_brand     : isom\n","    minor_version   : 512\n","    compatible_brands: isomiso2avc1mp41\n","    encoder         : Lavf58.76.100\n","  Stream #0:0(und): Video: h264 (High) (avc1 / 0x31637661), yuv420p, 480x360, q=2-31, 453 kb/s, 29.97 fps, 29.97 tbr, 11988 tbn, 11988 tbc (default)\n","    Metadata:\n","      handler_name    : VideoHandler\n","      vendor_id       : [0][0][0][0]\n","  Stream #0:1: Audio: mp3 (mp4a / 0x6134706D), 44100 Hz, stereo, fltp, 128 kb/s\n","    Metadata:\n","      encoder         : Lavc59.37\n","Stream mapping:\n","  Stream #0:0 -> #0:0 (copy)\n","  Stream #1:0 -> #0:1 (copy)\n","Press [q] to stop, [?] for help\n","frame=  598 fps=0.0 q=-1.0 Lsize=    1436kB time=00:00:19.85 bitrate= 592.7kbits/s speed= 687x    \n","video:1106kB audio:311kB subtitle:0kB other streams:0kB global headers:0kB muxing overhead: 1.387849%\n","ffmpeg version 4.4.2-0ubuntu0.22.04.1 Copyright (c) 2000-2021 the FFmpeg developers\n","  built with gcc 11 (Ubuntu 11.2.0-19ubuntu1)\n","  configuration: --prefix=/usr --extra-version=0ubuntu0.22.04.1 --toolchain=hardened --libdir=/usr/lib/x86_64-linux-gnu --incdir=/usr/include/x86_64-linux-gnu --arch=amd64 --enable-gpl --disable-stripping --enable-gnutls --enable-ladspa --enable-libaom --enable-libass --enable-libbluray --enable-libbs2b --enable-libcaca --enable-libcdio --enable-libcodec2 --enable-libdav1d --enable-libflite --enable-libfontconfig --enable-libfreetype --enable-libfribidi --enable-libgme --enable-libgsm --enable-libjack --enable-libmp3lame --enable-libmysofa --enable-libopenjpeg --enable-libopenmpt --enable-libopus --enable-libpulse --enable-librabbitmq --enable-librubberband --enable-libshine --enable-libsnappy --enable-libsoxr --enable-libspeex --enable-libsrt --enable-libssh --enable-libtheora --enable-libtwolame --enable-libvidstab --enable-libvorbis --enable-libvpx --enable-libwebp --enable-libx265 --enable-libxml2 --enable-libxvid --enable-libzimg --enable-libzmq --enable-libzvbi --enable-lv2 --enable-omx --enable-openal --enable-opencl --enable-opengl --enable-sdl2 --enable-pocketsphinx --enable-librsvg --enable-libmfx --enable-libdc1394 --enable-libdrm --enable-libiec61883 --enable-chromaprint --enable-frei0r --enable-libx264 --enable-shared\n","  libavutil      56. 70.100 / 56. 70.100\n","  libavcodec     58.134.100 / 58.134.100\n","  libavformat    58. 76.100 / 58. 76.100\n","  libavdevice    58. 13.100 / 58. 13.100\n","  libavfilter     7.110.100 /  7.110.100\n","  libswscale      5.  9.100 /  5.  9.100\n","  libswresample   3.  9.100 /  3.  9.100\n","  libpostproc    55.  9.100 / 55.  9.100\n","Input #0, mov,mp4,m4a,3gp,3g2,mj2, from 'Q300190_short.mp4':\n","  Metadata:\n","    major_brand     : isom\n","    minor_version   : 512\n","    compatible_brands: isomiso2avc1mp41\n","    encoder         : Lavf58.76.100\n","  Duration: 00:00:12.01, start: 0.000000, bitrate: 454 kb/s\n","  Stream #0:0(und): Video: h264 (High) (avc1 / 0x31637661), yuv420p, 480x360, 450 kb/s, 29.97 fps, 29.97 tbr, 11988 tbn, 59.94 tbc (default)\n","    Metadata:\n","      handler_name    : VideoHandler\n","      vendor_id       : [0][0][0][0]\n","Input #1, mp3, from 'MoonForest inst.mp3':\n","  Metadata:\n","    artist          : PeriTune\n","    encoder         : Studio One 5.5.2.86528\n","    TBPM            : 190\n","    date            : 2022\n","  Duration: 00:02:43.74, start: 0.025057, bitrate: 192 kb/s\n","  Stream #1:0: Audio: mp3, 44100 Hz, stereo, fltp, 192 kb/s\n","    Metadata:\n","      encoder         : LAME3.100\n","Output #0, mp4, to 'out_clip30_22_compare_21_9.mp4':\n","  Metadata:\n","    major_brand     : isom\n","    minor_version   : 512\n","    compatible_brands: isomiso2avc1mp41\n","    encoder         : Lavf58.76.100\n","  Stream #0:0(und): Video: h264 (High) (avc1 / 0x31637661), yuv420p, 480x360, q=2-31, 450 kb/s, 29.97 fps, 29.97 tbr, 11988 tbn, 11988 tbc (default)\n","    Metadata:\n","      handler_name    : VideoHandler\n","      vendor_id       : [0][0][0][0]\n","  Stream #0:1: Audio: mp3 (mp4a / 0x6134706D), 44100 Hz, stereo, fltp, 192 kb/s\n","    Metadata:\n","      encoder         : LAME3.100\n","Stream mapping:\n","  Stream #0:0 -> #0:0 (copy)\n","  Stream #1:0 -> #0:1 (copy)\n","Press [q] to stop, [?] for help\n","frame=  360 fps=0.0 q=-1.0 Lsize=     954kB time=00:00:11.91 bitrate= 655.8kbits/s speed= 715x    \n","video:661kB audio:280kB subtitle:0kB other streams:0kB global headers:0kB muxing overhead: 1.318449%\n","ffmpeg version 4.4.2-0ubuntu0.22.04.1 Copyright (c) 2000-2021 the FFmpeg developers\n","  built with gcc 11 (Ubuntu 11.2.0-19ubuntu1)\n","  configuration: --prefix=/usr --extra-version=0ubuntu0.22.04.1 --toolchain=hardened --libdir=/usr/lib/x86_64-linux-gnu --incdir=/usr/include/x86_64-linux-gnu --arch=amd64 --enable-gpl --disable-stripping --enable-gnutls --enable-ladspa --enable-libaom --enable-libass --enable-libbluray --enable-libbs2b --enable-libcaca --enable-libcdio --enable-libcodec2 --enable-libdav1d --enable-libflite --enable-libfontconfig --enable-libfreetype --enable-libfribidi --enable-libgme --enable-libgsm --enable-libjack --enable-libmp3lame --enable-libmysofa --enable-libopenjpeg --enable-libopenmpt --enable-libopus --enable-libpulse --enable-librabbitmq --enable-librubberband --enable-libshine --enable-libsnappy --enable-libsoxr --enable-libspeex --enable-libsrt --enable-libssh --enable-libtheora --enable-libtwolame --enable-libvidstab --enable-libvorbis --enable-libvpx --enable-libwebp --enable-libx265 --enable-libxml2 --enable-libxvid --enable-libzimg --enable-libzmq --enable-libzvbi --enable-lv2 --enable-omx --enable-openal --enable-opencl --enable-opengl --enable-sdl2 --enable-pocketsphinx --enable-librsvg --enable-libmfx --enable-libdc1394 --enable-libdrm --enable-libiec61883 --enable-chromaprint --enable-frei0r --enable-libx264 --enable-shared\n","  libavutil      56. 70.100 / 56. 70.100\n","  libavcodec     58.134.100 / 58.134.100\n","  libavformat    58. 76.100 / 58. 76.100\n","  libavdevice    58. 13.100 / 58. 13.100\n","  libavfilter     7.110.100 /  7.110.100\n","  libswscale      5.  9.100 /  5.  9.100\n","  libswresample   3.  9.100 /  3.  9.100\n","  libpostproc    55.  9.100 / 55.  9.100\n","Input #0, mov,mp4,m4a,3gp,3g2,mj2, from 'Q300191_short.mp4':\n","  Metadata:\n","    major_brand     : isom\n","    minor_version   : 512\n","    compatible_brands: isomiso2avc1mp41\n","    encoder         : Lavf58.76.100\n","  Duration: 00:00:30.03, start: 0.000000, bitrate: 1451 kb/s\n","  Stream #0:0(und): Video: h264 (High) (avc1 / 0x31637661), yuv420p, 360x640, 1448 kb/s, 29.97 fps, 29.97 tbr, 11988 tbn, 59.94 tbc (default)\n","    Metadata:\n","      handler_name    : VideoHandler\n","      vendor_id       : [0][0][0][0]\n","Input #1, mp3, from 'MoonForest inst.mp3':\n","  Metadata:\n","    artist          : PeriTune\n","    encoder         : Studio One 5.5.2.86528\n","    TBPM            : 190\n","    date            : 2022\n","  Duration: 00:02:43.74, start: 0.025057, bitrate: 192 kb/s\n","  Stream #1:0: Audio: mp3, 44100 Hz, stereo, fltp, 192 kb/s\n","    Metadata:\n","      encoder         : LAME3.100\n","Output #0, mp4, to 'out_clip30_22_compare_21_10.mp4':\n","  Metadata:\n","    major_brand     : isom\n","    minor_version   : 512\n","    compatible_brands: isomiso2avc1mp41\n","    encoder         : Lavf58.76.100\n","  Stream #0:0(und): Video: h264 (High) (avc1 / 0x31637661), yuv420p, 360x640, q=2-31, 1448 kb/s, 29.97 fps, 29.97 tbr, 11988 tbn, 11988 tbc (default)\n","    Metadata:\n","      handler_name    : VideoHandler\n","      vendor_id       : [0][0][0][0]\n","  Stream #0:1: Audio: mp3 (mp4a / 0x6134706D), 44100 Hz, stereo, fltp, 192 kb/s\n","    Metadata:\n","      encoder         : LAME3.100\n","Stream mapping:\n","  Stream #0:0 -> #0:0 (copy)\n","  Stream #1:0 -> #0:1 (copy)\n","Press [q] to stop, [?] for help\n","frame=  900 fps=0.0 q=-1.0 Lsize=    6042kB time=00:00:29.93 bitrate=1653.4kbits/s speed= 768x    \n","video:5310kB audio:703kB subtitle:0kB other streams:0kB global headers:0kB muxing overhead: 0.480627%\n","ffmpeg version 4.4.2-0ubuntu0.22.04.1 Copyright (c) 2000-2021 the FFmpeg developers\n","  built with gcc 11 (Ubuntu 11.2.0-19ubuntu1)\n","  configuration: --prefix=/usr --extra-version=0ubuntu0.22.04.1 --toolchain=hardened --libdir=/usr/lib/x86_64-linux-gnu --incdir=/usr/include/x86_64-linux-gnu --arch=amd64 --enable-gpl --disable-stripping --enable-gnutls --enable-ladspa --enable-libaom --enable-libass --enable-libbluray --enable-libbs2b --enable-libcaca --enable-libcdio --enable-libcodec2 --enable-libdav1d --enable-libflite --enable-libfontconfig --enable-libfreetype --enable-libfribidi --enable-libgme --enable-libgsm --enable-libjack --enable-libmp3lame --enable-libmysofa --enable-libopenjpeg --enable-libopenmpt --enable-libopus --enable-libpulse --enable-librabbitmq --enable-librubberband --enable-libshine --enable-libsnappy --enable-libsoxr --enable-libspeex --enable-libsrt --enable-libssh --enable-libtheora --enable-libtwolame --enable-libvidstab --enable-libvorbis --enable-libvpx --enable-libwebp --enable-libx265 --enable-libxml2 --enable-libxvid --enable-libzimg --enable-libzmq --enable-libzvbi --enable-lv2 --enable-omx --enable-openal --enable-opencl --enable-opengl --enable-sdl2 --enable-pocketsphinx --enable-librsvg --enable-libmfx --enable-libdc1394 --enable-libdrm --enable-libiec61883 --enable-chromaprint --enable-frei0r --enable-libx264 --enable-shared\n","  libavutil      56. 70.100 / 56. 70.100\n","  libavcodec     58.134.100 / 58.134.100\n","  libavformat    58. 76.100 / 58. 76.100\n","  libavdevice    58. 13.100 / 58. 13.100\n","  libavfilter     7.110.100 /  7.110.100\n","  libswscale      5.  9.100 /  5.  9.100\n","  libswresample   3.  9.100 /  3.  9.100\n","  libpostproc    55.  9.100 / 55.  9.100\n","Input #0, mov,mp4,m4a,3gp,3g2,mj2, from 'Q300224_short.mp4':\n","  Metadata:\n","    major_brand     : isom\n","    minor_version   : 512\n","    compatible_brands: isomiso2avc1mp41\n","    encoder         : Lavf58.76.100\n","  Duration: 00:00:30.03, start: 0.000000, bitrate: 626 kb/s\n","  Stream #0:0(und): Video: h264 (High) (avc1 / 0x31637661), yuv420p, 480x360, 623 kb/s, 23.98 fps, 23.98 tbr, 11988 tbn, 47.95 tbc (default)\n","    Metadata:\n","      handler_name    : VideoHandler\n","      vendor_id       : [0][0][0][0]\n","Input #1, mp3, from 'Coppelia Room.mp3':\n","  Metadata:\n","    artist          : PeriTune\n","    encoder         : Studio One 5.5.2.86528\n","    TBPM            : 128\n","    date            : 2023\n","  Duration: 00:02:09.04, start: 0.025057, bitrate: 192 kb/s\n","  Stream #1:0: Audio: mp3, 44100 Hz, stereo, fltp, 192 kb/s\n","    Metadata:\n","      encoder         : LAME3.100\n","Output #0, mp4, to 'out_clip30_22_compare_21_11.mp4':\n","  Metadata:\n","    major_brand     : isom\n","    minor_version   : 512\n","    compatible_brands: isomiso2avc1mp41\n","    encoder         : Lavf58.76.100\n","  Stream #0:0(und): Video: h264 (High) (avc1 / 0x31637661), yuv420p, 480x360, q=2-31, 623 kb/s, 23.98 fps, 23.98 tbr, 11988 tbn, 11988 tbc (default)\n","    Metadata:\n","      handler_name    : VideoHandler\n","      vendor_id       : [0][0][0][0]\n","  Stream #0:1: Audio: mp3 (mp4a / 0x6134706D), 44100 Hz, stereo, fltp, 192 kb/s\n","    Metadata:\n","      encoder         : LAME3.100\n","Stream mapping:\n","  Stream #0:0 -> #0:0 (copy)\n","  Stream #1:0 -> #0:1 (copy)\n","Press [q] to stop, [?] for help\n","frame=  720 fps=0.0 q=-1.0 Lsize=    3015kB time=00:00:29.91 bitrate= 825.8kbits/s speed=1.18e+03x    \n","video:2287kB audio:702kB subtitle:0kB other streams:0kB global headers:0kB muxing overhead: 0.885944%\n","ffmpeg version 4.4.2-0ubuntu0.22.04.1 Copyright (c) 2000-2021 the FFmpeg developers\n","  built with gcc 11 (Ubuntu 11.2.0-19ubuntu1)\n","  configuration: --prefix=/usr --extra-version=0ubuntu0.22.04.1 --toolchain=hardened --libdir=/usr/lib/x86_64-linux-gnu --incdir=/usr/include/x86_64-linux-gnu --arch=amd64 --enable-gpl --disable-stripping --enable-gnutls --enable-ladspa --enable-libaom --enable-libass --enable-libbluray --enable-libbs2b --enable-libcaca --enable-libcdio --enable-libcodec2 --enable-libdav1d --enable-libflite --enable-libfontconfig --enable-libfreetype --enable-libfribidi --enable-libgme --enable-libgsm --enable-libjack --enable-libmp3lame --enable-libmysofa --enable-libopenjpeg --enable-libopenmpt --enable-libopus --enable-libpulse --enable-librabbitmq --enable-librubberband --enable-libshine --enable-libsnappy --enable-libsoxr --enable-libspeex --enable-libsrt --enable-libssh --enable-libtheora --enable-libtwolame --enable-libvidstab --enable-libvorbis --enable-libvpx --enable-libwebp --enable-libx265 --enable-libxml2 --enable-libxvid --enable-libzimg --enable-libzmq --enable-libzvbi --enable-lv2 --enable-omx --enable-openal --enable-opencl --enable-opengl --enable-sdl2 --enable-pocketsphinx --enable-librsvg --enable-libmfx --enable-libdc1394 --enable-libdrm --enable-libiec61883 --enable-chromaprint --enable-frei0r --enable-libx264 --enable-shared\n","  libavutil      56. 70.100 / 56. 70.100\n","  libavcodec     58.134.100 / 58.134.100\n","  libavformat    58. 76.100 / 58. 76.100\n","  libavdevice    58. 13.100 / 58. 13.100\n","  libavfilter     7.110.100 /  7.110.100\n","  libswscale      5.  9.100 /  5.  9.100\n","  libswresample   3.  9.100 /  3.  9.100\n","  libpostproc    55.  9.100 / 55.  9.100\n","Input #0, mov,mp4,m4a,3gp,3g2,mj2, from 'Q300227_short.mp4':\n","  Metadata:\n","    major_brand     : isom\n","    minor_version   : 512\n","    compatible_brands: isomiso2avc1mp41\n","    encoder         : Lavf58.76.100\n","  Duration: 00:00:21.60, start: 0.000000, bitrate: 163 kb/s\n","  Stream #0:0(und): Video: h264 (High) (avc1 / 0x31637661), yuv420p, 448x360, 160 kb/s, 25 fps, 25 tbr, 12800 tbn, 50 tbc (default)\n","    Metadata:\n","      handler_name    : VideoHandler\n","      vendor_id       : [0][0][0][0]\n","Input #1, mp3, from 'Bygone Era.mp3':\n","  Metadata:\n","    artist          : PeriTune\n","    encoder         : Studio One 6.5.2.97444\n","    TBPM            : 120\n","    date            : 2024\n","  Duration: 00:02:03.40, start: 0.025057, bitrate: 192 kb/s\n","  Stream #1:0: Audio: mp3, 44100 Hz, stereo, fltp, 192 kb/s\n","    Metadata:\n","      encoder         : LAME3.100\n","Output #0, mp4, to 'out_clip30_22_compare_21_12.mp4':\n","  Metadata:\n","    major_brand     : isom\n","    minor_version   : 512\n","    compatible_brands: isomiso2avc1mp41\n","    encoder         : Lavf58.76.100\n","  Stream #0:0(und): Video: h264 (High) (avc1 / 0x31637661), yuv420p, 448x360, q=2-31, 160 kb/s, 25 fps, 25 tbr, 12800 tbn, 12800 tbc (default)\n","    Metadata:\n","      handler_name    : VideoHandler\n","      vendor_id       : [0][0][0][0]\n","  Stream #0:1: Audio: mp3 (mp4a / 0x6134706D), 44100 Hz, stereo, fltp, 192 kb/s\n","    Metadata:\n","      encoder         : LAME3.100\n","Stream mapping:\n","  Stream #0:0 -> #0:0 (copy)\n","  Stream #1:0 -> #0:1 (copy)\n","Press [q] to stop, [?] for help\n","frame=  540 fps=0.0 q=-1.0 Lsize=     950kB time=00:00:21.49 bitrate= 362.1kbits/s speed=1.1e+03x    \n","video:424kB audio:505kB subtitle:0kB other streams:0kB global headers:0kB muxing overhead: 2.249743%\n"]}],"source":["\n","for i in range(len(mp4_files)):\n","  # !ffmpeg -i Q300001.mp4 -i cliff_30sec.mp3 -c copy -shortest output.mp4\n","  # !ffmpeg -i {mp4_files[i]} -i {music_list[i]} -c copy -map 0:v:0 -map 1:a:0 output{i}.mp4\n","  !ffmpeg -i {mp4_files[i]} -i {mp3_files_formal[i]} -c copy -shortest out_clip30_22_compare_21_{i}.mp4\n"]}],"metadata":{"accelerator":"GPU","colab":{"gpuType":"V100","machine_shape":"hm","provenance":[]},"kernelspec":{"display_name":"Python 3","name":"python3"},"language_info":{"codemirror_mode":{"name":"ipython","version":3},"file_extension":".py","mimetype":"text/x-python","name":"python","nbconvert_exporter":"python","pygments_lexer":"ipython3","version":"3.9.16"},"vscode":{"interpreter":{"hash":"b02c911f9b3627d505ea4a19966a915ef21f28afb50dbf6b2115072d27c69103"}}},"nbformat":4,"nbformat_minor":0}